<?xml version="1.0" encoding="utf-8"?>
<!-- Generator: Adobe Illustrator 22.0.1, SVG Export Plug-In . SVG Version: 6.00 Build 0)  -->
<svg version="1.1" id="Calque_1" xmlns="http://www.w3.org/2000/svg" xmlns:xlink="http://www.w3.org/1999/xlink" x="0px" y="0px"
	 viewBox="0 0 21.6 21.6" style="enable-background:new 0 0 21.6 21.6;" xml:space="preserve">
<path d="M17.4,0H4.2C1.9,0,0,1.9,0,4.2v4.4v8.9c0,2.3,1.9,4.2,4.2,4.2h13.3c2.3,0,4.2-1.9,4.2-4.2V8.6V4.2C21.6,1.9,19.7,0,17.4,0z
	 M18.6,2.5l0.5,0V3v3.2l-3.7,0l0-3.7L18.6,2.5z M7.7,8.6C8.4,7.6,9.5,7,10.8,7c1.3,0,2.4,0.6,3.1,1.6c0.5,0.6,0.7,1.4,0.7,2.2
	c0,2.1-1.7,3.8-3.8,3.8c-2.1,0-3.8-1.7-3.8-3.8C7,10,7.3,9.2,7.7,8.6z M19.5,17.4c0,1.1-0.9,2.1-2.1,2.1H4.2c-1.1,0-2.1-0.9-2.1-2.1
	V8.6h3.2C5.1,9.3,4.9,10,4.9,10.8c0,3.3,2.7,5.9,5.9,5.9c3.3,0,5.9-2.7,5.9-5.9c0-0.8-0.2-1.5-0.4-2.2h3.2V17.4z"/>
</svg>
