<?xml version="1.0" encoding="utf-8"?>
<!-- Generator: Adobe Illustrator 22.0.1, SVG Export Plug-In . SVG Version: 6.00 Build 0)  -->
<svg version="1.1" id="Calque_1" xmlns="http://www.w3.org/2000/svg" xmlns:xlink="http://www.w3.org/1999/xlink" x="0px" y="0px"
	 viewBox="0 0 61.1 44.6" style="enable-background:new 0 0 61.1 44.6;" xml:space="preserve">
<path id="Calque_2_1_" d="M0,9.4v30.2l18.2-15.1L0,9.4z M56.3,0H4.8C2.5,0,0.5,1.7,0.1,4l24,20l4,3.3c1.4,1.1,3.5,1.1,4.9,0l4.2-3.5
	L61,4C60.6,1.7,58.6,0,56.3,0z M61.1,39.6V9.4L42.9,24.5L61.1,39.6z M36.3,30L33,32.8c-1.4,1.1-3.5,1.1-4.9,0l-4.2-3.5l-2.5-2
	L1.8,43.5c0.9,0.7,1.9,1.1,3,1.1h51.5c1.1,0,2.1-0.4,3-1.1L39.7,27.2L36.3,30z"/>
</svg>
