<?xml version="1.0" standalone="no"?>
<!DOCTYPE svg PUBLIC "-//W3C//DTD SVG 20010904//EN"
 "http://www.w3.org/TR/2001/REC-SVG-20010904/DTD/svg10.dtd">
<svg version="1.0" xmlns="http://www.w3.org/2000/svg"
 width="500.000000pt" height="500.000000pt" viewBox="0 0 500.000000 500.000000"
 preserveAspectRatio="xMidYMid meet">
<metadata>
Created by potrace 1.11, written by Peter Selinger 2001-2013
</metadata>
<g transform="translate(0.000000,500.000000) scale(0.100000,-0.100000)"
fill="#000000" stroke="none">
<path d="M1105 4671 c-150 -42 -276 -147 -344 -286 -49 -100 -61 -156 -57
-270 8 -223 153 -414 370 -492 128 -45 300 -31 431 35 53 27 131 95 178 157
92 121 130 276 103 419 -3 17 -8 42 -11 54 -2 13 -21 58 -41 99 -44 89 -133
185 -214 230 -122 69 -283 90 -415 54z"/>
<path d="M2410 4683 c-194 -32 -363 -177 -431 -369 -25 -72 -32 -211 -14 -289
59 -251 276 -427 530 -428 347 -1 605 310 540 651 -48 253 -283 446 -535 441
-36 -1 -76 -4 -90 -6z"/>
<path d="M3620 4673 c-198 -49 -363 -220 -404 -420 -34 -162 20 -361 129 -476
81 -86 157 -132 264 -161 298 -82 605 103 676 407 46 197 -32 416 -196 549
-123 101 -311 141 -469 101z"/>
<path d="M538 3589 c-267 -41 -472 -287 -462 -554 3 -82 11 -118 41 -195 59
-147 178 -259 332 -312 88 -30 249 -32 331 -4 89 30 144 62 203 116 115 105
177 237 183 384 4 105 -9 162 -57 263 -102 214 -337 338 -571 302z"/>
<path d="M1798 3589 c-180 -27 -327 -133 -411 -294 -28 -54 -35 -75 -52 -145
-10 -45 -8 -166 5 -221 32 -142 139 -287 262 -357 195 -109 450 -88 617 52
136 114 203 266 197 446 -6 183 -100 346 -256 445 -96 61 -246 91 -362 74z"/>
<path d="M3097 3594 c-1 -1 -24 -4 -52 -7 -56 -6 -118 -26 -185 -60 -63 -31
-179 -150 -217 -223 -97 -182 -79 -413 43 -581 154 -212 447 -281 685 -163
220 109 337 352 289 600 -44 230 -271 425 -505 433 -31 2 -57 2 -58 1z"/>
<path d="M4293 3588 c-194 -29 -366 -173 -435 -367 -39 -111 -31 -279 20 -394
47 -106 141 -210 237 -260 104 -55 277 -81 370 -56 20 6 46 12 57 14 85 17
229 128 296 229 86 128 109 318 58 464 -91 258 -337 409 -603 370z"/>
<path d="M1125 2486 c-199 -48 -357 -204 -407 -400 -44 -171 9 -379 131 -510
85 -92 240 -163 368 -169 64 -3 150 6 183 20 8 3 20 7 27 9 30 6 122 57 164
91 55 45 128 140 157 204 45 99 58 251 31 354 -14 53 -66 161 -93 193 -11 14
-34 40 -49 58 -39 46 -130 104 -207 132 -77 29 -225 37 -305 18z"/>
<path d="M2410 2494 c-275 -54 -466 -289 -455 -562 12 -295 246 -523 540 -524
104 0 153 11 250 57 177 84 305 293 299 488 -3 106 -11 143 -54 233 -91 190
-259 301 -465 309 -49 2 -101 1 -115 -1z"/>
<path d="M3620 2484 c-149 -39 -282 -145 -351 -279 -47 -92 -63 -154 -63 -245
1 -156 55 -287 161 -393 244 -244 647 -205 836 81 111 166 124 371 35 552 -37
76 -150 195 -218 230 -124 63 -283 85 -400 54z"/>
<path d="M1795 1399 c-210 -30 -395 -194 -451 -401 -14 -53 -20 -229 -9 -248
4 -6 9 -23 11 -38 3 -15 21 -60 42 -101 42 -87 131 -182 213 -229 64 -36 182
-69 256 -71 251 -8 483 168 547 414 34 132 6 306 -70 426 -112 177 -330 278
-539 248z"/>
<path d="M3002 1389 c-107 -27 -189 -73 -262 -148 -117 -119 -166 -250 -157
-416 26 -446 538 -670 891 -390 73 58 155 185 178 275 5 19 11 44 14 55 9 37
5 162 -7 211 -19 80 -76 189 -129 247 -135 148 -343 213 -528 166z"/>
</g>
</svg>
